<mxfile host="app.diagrams.net" agent="Mozilla/5.0 (Windows NT 10.0; Win64; x64) AppleWebKit/537.36 (KHTML, like Gecko) Chrome/135.0.0.0 Safari/537.36" version="26.2.14">
  <diagram name="Page-1" id="-I39Iznk6GeHSAaKLl3B">
    <mxGraphModel dx="3905" dy="2489" grid="1" gridSize="10" guides="1" tooltips="1" connect="1" arrows="1" fold="1" page="1" pageScale="1" pageWidth="850" pageHeight="1100" math="0" shadow="0">
      <root>
        <mxCell id="0" />
        <mxCell id="1" parent="0" />
        <mxCell id="wzqTsJwarLxhXt17RYov-1" value="" style="shape=umlLifeline;perimeter=lifelinePerimeter;whiteSpace=wrap;html=1;container=1;dropTarget=0;collapsible=0;recursiveResize=0;outlineConnect=0;portConstraint=eastwest;newEdgeStyle={&quot;curved&quot;:0,&quot;rounded&quot;:0};participant=umlActor;" vertex="1" parent="1">
          <mxGeometry x="-830" y="-40" width="30" height="1720" as="geometry" />
        </mxCell>
        <mxCell id="wzqTsJwarLxhXt17RYov-2" value="Committee" style="text;html=1;align=center;verticalAlign=middle;resizable=0;points=[];autosize=1;strokeColor=none;fillColor=none;fontSize=14;fontStyle=1" vertex="1" parent="1">
          <mxGeometry x="-860" y="-80" width="90" height="30" as="geometry" />
        </mxCell>
        <mxCell id="wzqTsJwarLxhXt17RYov-3" value="committee-homepage" style="shape=umlLifeline;perimeter=lifelinePerimeter;whiteSpace=wrap;html=1;container=1;dropTarget=0;collapsible=0;recursiveResize=0;outlineConnect=0;portConstraint=eastwest;newEdgeStyle={&quot;curved&quot;:0,&quot;rounded&quot;:0};fontSize=14;fontStyle=1" vertex="1" parent="1">
          <mxGeometry x="-720" y="-40" width="160" height="1720" as="geometry" />
        </mxCell>
        <mxCell id="wzqTsJwarLxhXt17RYov-4" value="" style="html=1;points=[[0,0,0,0,5],[0,1,0,0,-5],[1,0,0,0,5],[1,1,0,0,-5]];perimeter=orthogonalPerimeter;outlineConnect=0;targetShapes=umlLifeline;portConstraint=eastwest;newEdgeStyle={&quot;curved&quot;:0,&quot;rounded&quot;:0};strokeColor=#000000;fillColor=#dae8fc;" vertex="1" parent="wzqTsJwarLxhXt17RYov-3">
          <mxGeometry x="75" y="70" width="10" height="70" as="geometry" />
        </mxCell>
        <mxCell id="wzqTsJwarLxhXt17RYov-6" value="CommitteeController" style="shape=umlLifeline;perimeter=lifelinePerimeter;whiteSpace=wrap;html=1;container=1;dropTarget=0;collapsible=0;recursiveResize=0;outlineConnect=0;portConstraint=eastwest;newEdgeStyle={&quot;curved&quot;:0,&quot;rounded&quot;:0};fontSize=14;fontStyle=1" vertex="1" parent="1">
          <mxGeometry x="-520" y="-40" width="160" height="1720" as="geometry" />
        </mxCell>
        <mxCell id="wzqTsJwarLxhXt17RYov-7" value="" style="html=1;points=[[0,0,0,0,5],[0,1,0,0,-5],[1,0,0,0,5],[1,1,0,0,-5]];perimeter=orthogonalPerimeter;outlineConnect=0;targetShapes=umlLifeline;portConstraint=eastwest;newEdgeStyle={&quot;curved&quot;:0,&quot;rounded&quot;:0};strokeColor=#000000;fillColor=#dae8fc;" vertex="1" parent="wzqTsJwarLxhXt17RYov-6">
          <mxGeometry x="75" y="80" width="10" height="100" as="geometry" />
        </mxCell>
        <mxCell id="wzqTsJwarLxhXt17RYov-69" value="" style="html=1;points=[[0,0,0,0,5],[0,1,0,0,-5],[1,0,0,0,5],[1,1,0,0,-5]];perimeter=orthogonalPerimeter;outlineConnect=0;targetShapes=umlLifeline;portConstraint=eastwest;newEdgeStyle={&quot;curved&quot;:0,&quot;rounded&quot;:0};strokeColor=#000000;fillColor=#dae8fc;" vertex="1" parent="wzqTsJwarLxhXt17RYov-6">
          <mxGeometry x="75" y="480" width="10" height="70" as="geometry" />
        </mxCell>
        <mxCell id="wzqTsJwarLxhXt17RYov-14" value="Selects Student &amp;amp;&amp;nbsp;&lt;div&gt;click &quot;View Progress&quot;&lt;/div&gt;" style="text;html=1;align=center;verticalAlign=middle;resizable=0;points=[];autosize=1;strokeColor=none;fillColor=none;fontSize=13;fontStyle=2" vertex="1" parent="1">
          <mxGeometry x="-805" y="20" width="150" height="40" as="geometry" />
        </mxCell>
        <mxCell id="wzqTsJwarLxhXt17RYov-15" value="" style="endArrow=classic;html=1;rounded=0;" edge="1" parent="1">
          <mxGeometry width="50" height="50" relative="1" as="geometry">
            <mxPoint x="-815.5" y="56" as="sourcePoint" />
            <mxPoint x="-645" y="56" as="targetPoint" />
          </mxGeometry>
        </mxCell>
        <mxCell id="wzqTsJwarLxhXt17RYov-16" value="viewProgress()" style="text;html=1;align=center;verticalAlign=middle;resizable=0;points=[];autosize=1;strokeColor=none;fillColor=none;fontSize=13;fontStyle=2" vertex="1" parent="1">
          <mxGeometry x="-605" y="50" width="110" height="30" as="geometry" />
        </mxCell>
        <mxCell id="wzqTsJwarLxhXt17RYov-17" value="" style="endArrow=classic;html=1;rounded=0;" edge="1" parent="1">
          <mxGeometry width="50" height="50" relative="1" as="geometry">
            <mxPoint x="-635" y="75" as="sourcePoint" />
            <mxPoint x="-440.5" y="75" as="targetPoint" />
          </mxGeometry>
        </mxCell>
        <mxCell id="wzqTsJwarLxhXt17RYov-18" value="TraineeshipPositionService" style="shape=umlLifeline;perimeter=lifelinePerimeter;whiteSpace=wrap;html=1;container=1;dropTarget=0;collapsible=0;recursiveResize=0;outlineConnect=0;portConstraint=eastwest;newEdgeStyle={&quot;curved&quot;:0,&quot;rounded&quot;:0};fontSize=14;fontStyle=1" vertex="1" parent="1">
          <mxGeometry x="-320" y="-40" width="200" height="1720" as="geometry" />
        </mxCell>
        <mxCell id="wzqTsJwarLxhXt17RYov-25" value="" style="html=1;points=[[0,0,0,0,5],[0,1,0,0,-5],[1,0,0,0,5],[1,1,0,0,-5]];perimeter=orthogonalPerimeter;outlineConnect=0;targetShapes=umlLifeline;portConstraint=eastwest;newEdgeStyle={&quot;curved&quot;:0,&quot;rounded&quot;:0};strokeColor=#000000;fillColor=#dae8fc;" vertex="1" parent="wzqTsJwarLxhXt17RYov-18">
          <mxGeometry x="92.5" y="140" width="10" height="70" as="geometry" />
        </mxCell>
        <mxCell id="wzqTsJwarLxhXt17RYov-38" value="" style="html=1;points=[[0,0,0,0,5],[0,1,0,0,-5],[1,0,0,0,5],[1,1,0,0,-5]];perimeter=orthogonalPerimeter;outlineConnect=0;targetShapes=umlLifeline;portConstraint=eastwest;newEdgeStyle={&quot;curved&quot;:0,&quot;rounded&quot;:0};strokeColor=#000000;fillColor=#dae8fc;" vertex="1" parent="wzqTsJwarLxhXt17RYov-18">
          <mxGeometry x="95" y="260" width="10" height="180" as="geometry" />
        </mxCell>
        <mxCell id="wzqTsJwarLxhXt17RYov-72" value="" style="html=1;points=[[0,0,0,0,5],[0,1,0,0,-5],[1,0,0,0,5],[1,1,0,0,-5]];perimeter=orthogonalPerimeter;outlineConnect=0;targetShapes=umlLifeline;portConstraint=eastwest;newEdgeStyle={&quot;curved&quot;:0,&quot;rounded&quot;:0};strokeColor=#000000;fillColor=#dae8fc;" vertex="1" parent="wzqTsJwarLxhXt17RYov-18">
          <mxGeometry x="95" y="510" width="10" height="320" as="geometry" />
        </mxCell>
        <mxCell id="wzqTsJwarLxhXt17RYov-97" value="" style="html=1;points=[[0,0,0,0,5],[0,1,0,0,-5],[1,0,0,0,5],[1,1,0,0,-5]];perimeter=orthogonalPerimeter;outlineConnect=0;targetShapes=umlLifeline;portConstraint=eastwest;newEdgeStyle={&quot;curved&quot;:0,&quot;rounded&quot;:0};strokeColor=#000000;fillColor=#dae8fc;" vertex="1" parent="wzqTsJwarLxhXt17RYov-18">
          <mxGeometry x="95" y="1020" width="10" height="50" as="geometry" />
        </mxCell>
        <mxCell id="wzqTsJwarLxhXt17RYov-27" value="getPositionById()" style="text;html=1;align=center;verticalAlign=middle;resizable=0;points=[];autosize=1;strokeColor=none;fillColor=none;fontSize=13;fontStyle=2" vertex="1" parent="1">
          <mxGeometry x="-390" y="90" width="120" height="30" as="geometry" />
        </mxCell>
        <mxCell id="wzqTsJwarLxhXt17RYov-28" value="" style="endArrow=classic;html=1;rounded=0;" edge="1" parent="1">
          <mxGeometry width="50" height="50" relative="1" as="geometry">
            <mxPoint x="-440.4523809523812" y="117" as="sourcePoint" />
            <mxPoint x="-227.5" y="117" as="targetPoint" />
          </mxGeometry>
        </mxCell>
        <mxCell id="wzqTsJwarLxhXt17RYov-29" value="TraineeshipDAORepository" style="shape=umlLifeline;perimeter=lifelinePerimeter;whiteSpace=wrap;html=1;container=1;dropTarget=0;collapsible=0;recursiveResize=0;outlineConnect=0;portConstraint=eastwest;newEdgeStyle={&quot;curved&quot;:0,&quot;rounded&quot;:0};fontSize=14;fontStyle=1" vertex="1" parent="1">
          <mxGeometry x="200" y="-40" width="200" height="1720" as="geometry" />
        </mxCell>
        <mxCell id="wzqTsJwarLxhXt17RYov-30" value="" style="html=1;points=[[0,0,0,0,5],[0,1,0,0,-5],[1,0,0,0,5],[1,1,0,0,-5]];perimeter=orthogonalPerimeter;outlineConnect=0;targetShapes=umlLifeline;portConstraint=eastwest;newEdgeStyle={&quot;curved&quot;:0,&quot;rounded&quot;:0};strokeColor=#000000;fillColor=#dae8fc;" vertex="1" parent="wzqTsJwarLxhXt17RYov-29">
          <mxGeometry x="95" y="150" width="10" height="160" as="geometry" />
        </mxCell>
        <mxCell id="wzqTsJwarLxhXt17RYov-31" value="findById()" style="text;html=1;align=center;verticalAlign=middle;resizable=0;points=[];autosize=1;strokeColor=none;fillColor=none;fontSize=13;fontStyle=2" vertex="1" parent="1">
          <mxGeometry x="-180" y="120" width="80" height="30" as="geometry" />
        </mxCell>
        <mxCell id="wzqTsJwarLxhXt17RYov-32" value="" style="endArrow=classic;html=1;rounded=0;" edge="1" parent="1" target="wzqTsJwarLxhXt17RYov-29">
          <mxGeometry width="50" height="50" relative="1" as="geometry">
            <mxPoint x="-221.16666666666652" y="147" as="sourcePoint" />
            <mxPoint x="280" y="147" as="targetPoint" />
          </mxGeometry>
        </mxCell>
        <mxCell id="wzqTsJwarLxhXt17RYov-33" value="Database (MySQL)" style="shape=umlLifeline;perimeter=lifelinePerimeter;whiteSpace=wrap;html=1;container=1;dropTarget=0;collapsible=0;recursiveResize=0;outlineConnect=0;portConstraint=eastwest;newEdgeStyle={&quot;curved&quot;:0,&quot;rounded&quot;:0};fontSize=14;fontStyle=1" vertex="1" parent="1">
          <mxGeometry x="440" y="-40" width="100" height="1710" as="geometry" />
        </mxCell>
        <mxCell id="wzqTsJwarLxhXt17RYov-34" value="" style="html=1;points=[[0,0,0,0,5],[0,1,0,0,-5],[1,0,0,0,5],[1,1,0,0,-5]];perimeter=orthogonalPerimeter;outlineConnect=0;targetShapes=umlLifeline;portConstraint=eastwest;newEdgeStyle={&quot;curved&quot;:0,&quot;rounded&quot;:0};strokeColor=#000000;fillColor=#dae8fc;" vertex="1" parent="wzqTsJwarLxhXt17RYov-33">
          <mxGeometry x="45" y="170" width="10" height="90" as="geometry" />
        </mxCell>
        <mxCell id="wzqTsJwarLxhXt17RYov-35" value="find Position" style="text;html=1;align=center;verticalAlign=middle;resizable=0;points=[];autosize=1;strokeColor=none;fillColor=none;fontSize=13;fontStyle=2" vertex="1" parent="1">
          <mxGeometry x="350" y="148" width="90" height="30" as="geometry" />
        </mxCell>
        <mxCell id="wzqTsJwarLxhXt17RYov-36" value="" style="endArrow=classic;html=1;rounded=0;" edge="1" parent="1">
          <mxGeometry width="50" height="50" relative="1" as="geometry">
            <mxPoint x="300" y="170" as="sourcePoint" />
            <mxPoint x="485" y="170" as="targetPoint" />
          </mxGeometry>
        </mxCell>
        <mxCell id="wzqTsJwarLxhXt17RYov-37" value="return Position" style="html=1;verticalAlign=bottom;endArrow=open;dashed=1;endSize=8;curved=0;rounded=0;fontSize=13;fontStyle=2;exitX=0;exitY=1;exitDx=0;exitDy=-5;exitPerimeter=0;" edge="1" parent="1" source="wzqTsJwarLxhXt17RYov-34" target="wzqTsJwarLxhXt17RYov-30">
          <mxGeometry x="-0.0026" relative="1" as="geometry">
            <mxPoint x="478" y="190" as="sourcePoint" />
            <mxPoint x="312" y="190" as="targetPoint" />
            <mxPoint as="offset" />
          </mxGeometry>
        </mxCell>
        <mxCell id="wzqTsJwarLxhXt17RYov-39" value="return Position" style="html=1;verticalAlign=bottom;endArrow=open;dashed=1;endSize=8;curved=0;rounded=0;fontSize=13;fontStyle=2;" edge="1" parent="1">
          <mxGeometry x="-0.0026" relative="1" as="geometry">
            <mxPoint x="299.49999999999955" y="240" as="sourcePoint" />
            <mxPoint x="-215" y="240" as="targetPoint" />
            <mxPoint as="offset" />
          </mxGeometry>
        </mxCell>
        <mxCell id="wzqTsJwarLxhXt17RYov-40" value="TraineeshipPosition" style="shape=umlLifeline;perimeter=lifelinePerimeter;whiteSpace=wrap;html=1;container=1;dropTarget=0;collapsible=0;recursiveResize=0;outlineConnect=0;portConstraint=eastwest;newEdgeStyle={&quot;curved&quot;:0,&quot;rounded&quot;:0};fontSize=14;fontStyle=1" vertex="1" parent="1">
          <mxGeometry x="560" y="-40" width="200" height="1720" as="geometry" />
        </mxCell>
        <mxCell id="wzqTsJwarLxhXt17RYov-41" value="" style="html=1;points=[[0,0,0,0,5],[0,1,0,0,-5],[1,0,0,0,5],[1,1,0,0,-5]];perimeter=orthogonalPerimeter;outlineConnect=0;targetShapes=umlLifeline;portConstraint=eastwest;newEdgeStyle={&quot;curved&quot;:0,&quot;rounded&quot;:0};strokeColor=#000000;fillColor=#dae8fc;" vertex="1" parent="wzqTsJwarLxhXt17RYov-40">
          <mxGeometry x="92.5" y="300" width="10" height="80" as="geometry" />
        </mxCell>
        <mxCell id="wzqTsJwarLxhXt17RYov-49" value="" style="endArrow=classic;html=1;rounded=0;" edge="1" parent="1">
          <mxGeometry width="50" height="50" relative="1" as="geometry">
            <mxPoint x="-215" y="284" as="sourcePoint" />
            <mxPoint x="659.4999999999995" y="284" as="targetPoint" />
          </mxGeometry>
        </mxCell>
        <mxCell id="wzqTsJwarLxhXt17RYov-51" value="getStudent()" style="text;html=1;align=center;verticalAlign=middle;resizable=0;points=[];autosize=1;strokeColor=none;fillColor=none;fontSize=13;fontStyle=2" vertex="1" parent="1">
          <mxGeometry x="-170" y="248" width="100" height="30" as="geometry" />
        </mxCell>
        <mxCell id="wzqTsJwarLxhXt17RYov-61" value="return Student" style="html=1;verticalAlign=bottom;endArrow=open;dashed=1;endSize=8;curved=0;rounded=0;fontSize=13;fontStyle=2;" edge="1" parent="1" target="wzqTsJwarLxhXt17RYov-38">
          <mxGeometry x="-0.0026" relative="1" as="geometry">
            <mxPoint x="654.4999999999995" y="320" as="sourcePoint" />
            <mxPoint x="140" y="320" as="targetPoint" />
            <mxPoint as="offset" />
          </mxGeometry>
        </mxCell>
        <mxCell id="wzqTsJwarLxhXt17RYov-62" value="ViewProgress" style="shape=umlLifeline;perimeter=lifelinePerimeter;whiteSpace=wrap;html=1;container=1;dropTarget=0;collapsible=0;recursiveResize=0;outlineConnect=0;portConstraint=eastwest;newEdgeStyle={&quot;curved&quot;:0,&quot;rounded&quot;:0};fontSize=14;fontStyle=1" vertex="1" parent="1">
          <mxGeometry x="-80" y="-40" width="100" height="1710" as="geometry" />
        </mxCell>
        <mxCell id="wzqTsJwarLxhXt17RYov-64" value="" style="html=1;points=[[0,0,0,0,5],[0,1,0,0,-5],[1,0,0,0,5],[1,1,0,0,-5]];perimeter=orthogonalPerimeter;outlineConnect=0;targetShapes=umlLifeline;portConstraint=eastwest;newEdgeStyle={&quot;curved&quot;:0,&quot;rounded&quot;:0};strokeColor=#000000;fillColor=#dae8fc;" vertex="1" parent="wzqTsJwarLxhXt17RYov-62">
          <mxGeometry x="45" y="390" width="10" height="120" as="geometry" />
        </mxCell>
        <mxCell id="wzqTsJwarLxhXt17RYov-98" value="" style="html=1;points=[[0,0,0,0,5],[0,1,0,0,-5],[1,0,0,0,5],[1,1,0,0,-5]];perimeter=orthogonalPerimeter;outlineConnect=0;targetShapes=umlLifeline;portConstraint=eastwest;newEdgeStyle={&quot;curved&quot;:0,&quot;rounded&quot;:0};strokeColor=#000000;fillColor=#dae8fc;" vertex="1" parent="wzqTsJwarLxhXt17RYov-62">
          <mxGeometry x="45" y="1040" width="10" height="50" as="geometry" />
        </mxCell>
        <mxCell id="wzqTsJwarLxhXt17RYov-65" value="&quot;call&quot;" style="text;html=1;align=center;verticalAlign=middle;resizable=0;points=[];autosize=1;strokeColor=none;fillColor=none;fontSize=13;fontStyle=2" vertex="1" parent="1">
          <mxGeometry x="-170" y="340" width="50" height="30" as="geometry" />
        </mxCell>
        <mxCell id="wzqTsJwarLxhXt17RYov-66" value="" style="endArrow=classic;html=1;rounded=0;" edge="1" parent="1" source="wzqTsJwarLxhXt17RYov-38">
          <mxGeometry width="50" height="50" relative="1" as="geometry">
            <mxPoint x="-210" y="370" as="sourcePoint" />
            <mxPoint x="-30.5" y="370" as="targetPoint" />
          </mxGeometry>
        </mxCell>
        <mxCell id="wzqTsJwarLxhXt17RYov-67" value="Selects Strategy &amp;amp;&amp;nbsp;&lt;div&gt;clicks Assign Supervisor&lt;/div&gt;" style="text;html=1;align=center;verticalAlign=middle;resizable=0;points=[];autosize=1;strokeColor=none;fillColor=none;fontSize=13;fontStyle=2" vertex="1" parent="1">
          <mxGeometry x="-810" y="380" width="160" height="40" as="geometry" />
        </mxCell>
        <mxCell id="wzqTsJwarLxhXt17RYov-68" value="" style="endArrow=classic;html=1;rounded=0;" edge="1" parent="1">
          <mxGeometry width="50" height="50" relative="1" as="geometry">
            <mxPoint x="-814" y="419" as="sourcePoint" />
            <mxPoint x="-34.5" y="419" as="targetPoint" />
          </mxGeometry>
        </mxCell>
        <mxCell id="wzqTsJwarLxhXt17RYov-70" value="assignSupervisor()" style="text;html=1;align=center;verticalAlign=middle;resizable=0;points=[];autosize=1;strokeColor=none;fillColor=none;fontStyle=2;fontSize=13;" vertex="1" parent="1">
          <mxGeometry x="-185" y="428" width="130" height="30" as="geometry" />
        </mxCell>
        <mxCell id="wzqTsJwarLxhXt17RYov-71" value="" style="endArrow=classic;html=1;rounded=0;" edge="1" parent="1">
          <mxGeometry width="50" height="50" relative="1" as="geometry">
            <mxPoint x="-35" y="451" as="sourcePoint" />
            <mxPoint x="-435" y="451" as="targetPoint" />
          </mxGeometry>
        </mxCell>
        <mxCell id="wzqTsJwarLxhXt17RYov-73" value="assignSupervisor()" style="text;html=1;align=center;verticalAlign=middle;resizable=0;points=[];autosize=1;strokeColor=none;fillColor=none;fontStyle=2;fontSize=13;" vertex="1" parent="1">
          <mxGeometry x="-400" y="470" width="130" height="30" as="geometry" />
        </mxCell>
        <mxCell id="wzqTsJwarLxhXt17RYov-74" value="" style="endArrow=classic;html=1;rounded=0;" edge="1" parent="1">
          <mxGeometry width="50" height="50" relative="1" as="geometry">
            <mxPoint x="-435" y="497" as="sourcePoint" />
            <mxPoint x="-225" y="497" as="targetPoint" />
          </mxGeometry>
        </mxCell>
        <mxCell id="wzqTsJwarLxhXt17RYov-77" value="SupervisorAssignmentFactory" style="shape=umlLifeline;perimeter=lifelinePerimeter;whiteSpace=wrap;html=1;container=1;dropTarget=0;collapsible=0;recursiveResize=0;outlineConnect=0;portConstraint=eastwest;newEdgeStyle={&quot;curved&quot;:0,&quot;rounded&quot;:0};fontSize=14;fontStyle=1" vertex="1" parent="1">
          <mxGeometry x="800" y="-40" width="220" height="1710" as="geometry" />
        </mxCell>
        <mxCell id="wzqTsJwarLxhXt17RYov-78" value="" style="html=1;points=[[0,0,0,0,5],[0,1,0,0,-5],[1,0,0,0,5],[1,1,0,0,-5]];perimeter=orthogonalPerimeter;outlineConnect=0;targetShapes=umlLifeline;portConstraint=eastwest;newEdgeStyle={&quot;curved&quot;:0,&quot;rounded&quot;:0};strokeColor=#000000;fillColor=#dae8fc;" vertex="1" parent="wzqTsJwarLxhXt17RYov-77">
          <mxGeometry x="105" y="520" width="10" height="100" as="geometry" />
        </mxCell>
        <mxCell id="wzqTsJwarLxhXt17RYov-79" value="" style="endArrow=classic;html=1;rounded=0;" edge="1" parent="1">
          <mxGeometry width="50" height="50" relative="1" as="geometry">
            <mxPoint x="-221.5" y="530" as="sourcePoint" />
            <mxPoint x="909.5" y="530" as="targetPoint" />
          </mxGeometry>
        </mxCell>
        <mxCell id="wzqTsJwarLxhXt17RYov-80" value="createStrategy()" style="text;html=1;align=center;verticalAlign=middle;resizable=0;points=[];autosize=1;strokeColor=none;fillColor=none;fontSize=13;fontStyle=2" vertex="1" parent="1">
          <mxGeometry x="-185" y="500" width="120" height="30" as="geometry" />
        </mxCell>
        <mxCell id="wzqTsJwarLxhXt17RYov-81" value="return Strategy" style="html=1;verticalAlign=bottom;endArrow=open;dashed=1;endSize=8;curved=0;rounded=0;fontSize=13;fontStyle=2;" edge="1" parent="1">
          <mxGeometry x="-0.0026" relative="1" as="geometry">
            <mxPoint x="909.4999999999995" y="559" as="sourcePoint" />
            <mxPoint x="-215" y="559" as="targetPoint" />
            <mxPoint as="offset" />
          </mxGeometry>
        </mxCell>
        <mxCell id="wzqTsJwarLxhXt17RYov-82" value="SupervisorAssignmentStrategy" style="shape=umlLifeline;perimeter=lifelinePerimeter;whiteSpace=wrap;html=1;container=1;dropTarget=0;collapsible=0;recursiveResize=0;outlineConnect=0;portConstraint=eastwest;newEdgeStyle={&quot;curved&quot;:0,&quot;rounded&quot;:0};fontSize=14;fontStyle=1" vertex="1" parent="1">
          <mxGeometry x="1040" y="-40" width="220" height="1710" as="geometry" />
        </mxCell>
        <mxCell id="wzqTsJwarLxhXt17RYov-83" value="" style="html=1;points=[[0,0,0,0,5],[0,1,0,0,-5],[1,0,0,0,5],[1,1,0,0,-5]];perimeter=orthogonalPerimeter;outlineConnect=0;targetShapes=umlLifeline;portConstraint=eastwest;newEdgeStyle={&quot;curved&quot;:0,&quot;rounded&quot;:0};strokeColor=#000000;fillColor=#dae8fc;" vertex="1" parent="wzqTsJwarLxhXt17RYov-82">
          <mxGeometry x="105" y="620" width="10" height="120" as="geometry" />
        </mxCell>
        <mxCell id="wzqTsJwarLxhXt17RYov-84" value="assign()" style="text;html=1;align=center;verticalAlign=middle;resizable=0;points=[];autosize=1;strokeColor=none;fillColor=none;fontSize=13;fontStyle=2" vertex="1" parent="1">
          <mxGeometry x="-170" y="580" width="70" height="30" as="geometry" />
        </mxCell>
        <mxCell id="wzqTsJwarLxhXt17RYov-85" value="" style="endArrow=classic;html=1;rounded=0;" edge="1" parent="1">
          <mxGeometry width="50" height="50" relative="1" as="geometry">
            <mxPoint x="-220.92857142857156" y="605" as="sourcePoint" />
            <mxPoint x="1149.5" y="605" as="targetPoint" />
          </mxGeometry>
        </mxCell>
        <mxCell id="wzqTsJwarLxhXt17RYov-86" value="return chosen Professor" style="html=1;verticalAlign=bottom;endArrow=open;dashed=1;endSize=8;curved=0;rounded=0;fontSize=13;fontStyle=2;" edge="1" parent="1" target="wzqTsJwarLxhXt17RYov-18">
          <mxGeometry x="0.0905" relative="1" as="geometry">
            <mxPoint x="1144.4999999999995" y="640" as="sourcePoint" />
            <mxPoint x="20" y="640" as="targetPoint" />
            <mxPoint as="offset" />
          </mxGeometry>
        </mxCell>
        <mxCell id="wzqTsJwarLxhXt17RYov-87" value="alt" style="shape=umlFrame;whiteSpace=wrap;html=1;pointerEvents=0;" vertex="1" parent="1">
          <mxGeometry x="-310" y="680" width="670" height="270" as="geometry" />
        </mxCell>
        <mxCell id="wzqTsJwarLxhXt17RYov-88" value="Found Professor" style="text;html=1;align=center;verticalAlign=middle;resizable=0;points=[];autosize=1;strokeColor=#666666;fillColor=#f5f5f5;fontSize=14;fontStyle=2;fontColor=#333333;" vertex="1" parent="1">
          <mxGeometry x="60" y="700" width="130" height="30" as="geometry" />
        </mxCell>
        <mxCell id="wzqTsJwarLxhXt17RYov-89" value="Not Found Professor" style="text;html=1;align=center;verticalAlign=middle;resizable=0;points=[];autosize=1;strokeColor=#666666;fillColor=#f5f5f5;fontSize=14;fontStyle=2;fontColor=#333333;" vertex="1" parent="1">
          <mxGeometry x="60" y="805" width="150" height="30" as="geometry" />
        </mxCell>
        <mxCell id="wzqTsJwarLxhXt17RYov-90" value="" style="html=1;points=[[0,0,0,0,5],[0,1,0,0,-5],[1,0,0,0,5],[1,1,0,0,-5]];perimeter=orthogonalPerimeter;outlineConnect=0;targetShapes=umlLifeline;portConstraint=eastwest;newEdgeStyle={&quot;curved&quot;:0,&quot;rounded&quot;:0};strokeColor=#000000;fillColor=#dae8fc;" vertex="1" parent="1">
          <mxGeometry x="295" y="740" width="10" height="50" as="geometry" />
        </mxCell>
        <mxCell id="wzqTsJwarLxhXt17RYov-91" value="" style="endArrow=classic;html=1;rounded=0;" edge="1" parent="1">
          <mxGeometry width="50" height="50" relative="1" as="geometry">
            <mxPoint x="-221.16666666666652" y="768" as="sourcePoint" />
            <mxPoint x="295" y="768" as="targetPoint" />
          </mxGeometry>
        </mxCell>
        <mxCell id="wzqTsJwarLxhXt17RYov-92" value="save()" style="text;html=1;align=center;verticalAlign=middle;resizable=0;points=[];autosize=1;strokeColor=none;fillColor=none;fontSize=13;fontStyle=2" vertex="1" parent="1">
          <mxGeometry x="-160" y="730" width="60" height="30" as="geometry" />
        </mxCell>
        <mxCell id="wzqTsJwarLxhXt17RYov-93" value="" style="html=1;points=[[0,0,0,0,5],[0,1,0,0,-5],[1,0,0,0,5],[1,1,0,0,-5]];perimeter=orthogonalPerimeter;outlineConnect=0;targetShapes=umlLifeline;portConstraint=eastwest;newEdgeStyle={&quot;curved&quot;:0,&quot;rounded&quot;:0};strokeColor=#000000;fillColor=#dae8fc;" vertex="1" parent="1">
          <mxGeometry x="-225" y="870" width="10" height="50" as="geometry" />
        </mxCell>
        <mxCell id="wzqTsJwarLxhXt17RYov-94" value="" style="html=1;points=[[0,0,0,0,5],[0,1,0,0,-5],[1,0,0,0,5],[1,1,0,0,-5]];perimeter=orthogonalPerimeter;outlineConnect=0;targetShapes=umlLifeline;portConstraint=eastwest;newEdgeStyle={&quot;curved&quot;:0,&quot;rounded&quot;:0};strokeColor=#000000;fillColor=#dae8fc;" vertex="1" parent="1">
          <mxGeometry x="-35" y="890" width="10" height="50" as="geometry" />
        </mxCell>
        <mxCell id="wzqTsJwarLxhXt17RYov-95" value="send error message" style="text;html=1;align=center;verticalAlign=middle;resizable=0;points=[];autosize=1;strokeColor=none;fillColor=none;fontSize=13;fontStyle=2" vertex="1" parent="1">
          <mxGeometry x="-195" y="880" width="140" height="30" as="geometry" />
        </mxCell>
        <mxCell id="wzqTsJwarLxhXt17RYov-96" value="" style="endArrow=classic;html=1;rounded=0;" edge="1" parent="1">
          <mxGeometry width="50" height="50" relative="1" as="geometry">
            <mxPoint x="-215" y="910" as="sourcePoint" />
            <mxPoint x="-35" y="910" as="targetPoint" />
          </mxGeometry>
        </mxCell>
        <mxCell id="wzqTsJwarLxhXt17RYov-99" value="send successful message" style="text;html=1;align=center;verticalAlign=middle;resizable=0;points=[];autosize=1;strokeColor=none;fillColor=none;fontSize=13;fontStyle=2" vertex="1" parent="1">
          <mxGeometry x="-205" y="990" width="170" height="30" as="geometry" />
        </mxCell>
        <mxCell id="wzqTsJwarLxhXt17RYov-100" value="" style="endArrow=classic;html=1;rounded=0;" edge="1" parent="1">
          <mxGeometry width="50" height="50" relative="1" as="geometry">
            <mxPoint x="-215" y="1021" as="sourcePoint" />
            <mxPoint x="-30.5" y="1021" as="targetPoint" />
          </mxGeometry>
        </mxCell>
      </root>
    </mxGraphModel>
  </diagram>
</mxfile>
